<svg width="116" height="30" viewBox="0 0 116 30" fill="none" xmlns="http://www.w3.org/2000/svg">
<path d="M74.8511 9.76553L74.6774 10.2344L74.8993 10.3166L75.1036 10.1971L74.8511 9.76553ZM50.7306 0.829306L50.9043 0.360449L50.9039 0.360304L50.7306 0.829306ZM47.2949 8.45071L47.7642 8.62323L47.7642 8.62314L47.2949 8.45071ZM47.6484 9.2155L47.4759 9.6848L47.4761 9.68487L47.6484 9.2155ZM50.4448 10.2421L50.9142 10.4143L51.0865 9.94498L50.6171 9.77268L50.4448 10.2421ZM49.8288 11.9204L49.3594 11.7481L49.3594 11.7482L49.8288 11.9204ZM50.1825 12.6847L50.01 13.154L50.0102 13.1541L50.1825 12.6847ZM55.7753 14.738L56.2447 14.9105L56.4171 14.441L55.9477 14.2687L55.7753 14.738ZM55.3643 15.8569L55.8328 16.0315L55.8336 16.0293L55.3643 15.8569ZM56.2134 18.6032H56.7134V18.344L56.5015 18.1946L56.2134 18.6032ZM56.2134 21.6434V22.1434H56.7134V21.6434H56.2134ZM48.1974 21.6434L47.7393 21.8438L47.8704 22.1434H48.1974V21.6434ZM46.0671 19.9158H45.5671V20.3228L45.9656 20.4054L46.0671 19.9158ZM46.0671 26.9457L45.9655 26.4561L45.5671 26.5388V26.9457H46.0671ZM48.1974 25.2178V24.7178H47.8704L47.7393 25.0175L48.1974 25.2178ZM56.2134 25.2178H56.7134V24.7178H56.2134V25.2178ZM59.7878 19.214L59.5657 18.7661L59.2878 18.9039V19.214H59.7878ZM60.9561 17.9122L61.4254 18.0846L61.4254 18.0846L60.9561 17.9122ZM61.3671 16.7934L61.5394 16.324L61.0702 16.1518L60.8978 16.621L61.3671 16.7934ZM66.4004 18.6403L66.5734 18.1711L66.5726 18.1709L66.4004 18.6403ZM67.1649 18.2865L67.6342 18.4591L67.6343 18.4588L67.1649 18.2865ZM67.3882 17.6782L67.4807 17.1868L67.0647 17.1086L66.9188 17.5059L67.3882 17.6782ZM71.5584 14.8288L71.067 14.7364L71.067 14.7364L71.5584 14.8288ZM71.3077 12.7072L71.0793 12.2624L70.6575 12.479L70.8514 12.9117L71.3077 12.7072ZM74.9191 10.8528L74.6911 10.4078L74.6907 10.408L74.9191 10.8528ZM75.1776 10.051L74.7324 10.2787L74.7326 10.2791L75.1776 10.051ZM74.8541 9.76378L75.0275 9.29479L74.8057 9.21281L74.6016 9.33223L74.8541 9.76378ZM57.4047 19.146L57.575 18.6759L56.9047 18.433V19.146H57.4047ZM57.8979 19.3248L57.7276 19.7949L57.7292 19.7954L57.8979 19.3248ZM58.5962 19.4618H59.0962V18.9828L58.6177 18.9623L58.5962 19.4618ZM58.5962 21.6434V22.1434H59.0962V21.6434H58.5962ZM57.4047 21.6434H56.9047V22.1434H57.4047V21.6434ZM44.8758 27.601V28.101H45.3758V27.601H44.8758ZM43.6652 27.601H43.1652V28.101H43.6652V27.601ZM43.6652 19.2605V18.7605H43.1652V19.2605H43.6652ZM44.8758 19.2605H45.3758V18.7605H44.8758V19.2605ZM47.2586 24.0265L47.7586 24.0272V24.0265H47.2586ZM46.0671 25.7119H45.5671V26.4201L46.2345 26.183L46.0671 25.7119ZM46.0671 21.1496L46.2343 20.6784L45.5671 20.4416V21.1496H46.0671ZM47.2586 22.835L47.7586 22.835L47.7586 22.8343L47.2586 22.835ZM48.4687 22.835V22.335H47.9687V22.835H48.4687ZM58.5962 22.835H59.0962V22.335H58.5962V22.835ZM58.5962 24.0265V24.5265H59.0962V24.0265H58.5962ZM48.4687 24.0265H47.9687V24.5265H48.4687V24.0265ZM57.4047 25.2178V24.7178H56.9047V25.2178H57.4047ZM58.5962 25.2178H59.0962V24.7178H58.5962V25.2178ZM60.2488 16.3831L60.7182 16.5556L60.8906 16.0861L60.4211 15.9137L60.2488 16.3831ZM59.8378 17.5019L60.3071 17.6746L60.3071 17.6744L59.8378 17.5019ZM58.309 18.209L58.4812 17.7396L58.481 17.7395L58.309 18.209ZM57.1884 17.7985L57.0161 18.2678L57.0164 18.2679L57.1884 17.7985ZM56.4806 16.2694L56.0114 16.0968L56.0112 16.0971L56.4806 16.2694ZM56.8919 15.1511L57.0642 14.6817L56.5951 14.5095L56.4226 14.9785L56.8919 15.1511ZM66.2521 17.3184L66.0798 17.7878L66.5492 17.9601L66.7215 17.4908L66.2521 17.3184ZM51.1523 11.7736L50.683 11.6011L50.5105 12.0706L50.98 12.243L51.1523 11.7736ZM51.5636 10.6548L51.736 10.1855L51.2668 10.0132L51.0943 10.4823L51.5636 10.6548ZM60.5111 13.9405L60.3387 14.4099L60.3402 14.4104L60.5111 13.9405ZM61.1251 13.8152L61.4666 14.1805L61.4678 14.1793L61.1251 13.8152ZM62.797 12.2414L62.9693 11.7721L62.6793 11.6655L62.4542 11.8773L62.797 12.2414ZM67.4842 13.963L67.9536 14.1353L68.1259 13.666L67.6566 13.4937L67.4842 13.963ZM70.2801 14.9901L70.7489 15.1639L70.7502 15.1603L70.2801 14.9901ZM67.807 16.5391L67.3376 16.3668L67.1146 16.9743L67.7587 17.0368L67.807 16.5391ZM68.7275 14.0315L68.4986 13.587L68.3253 13.6762L68.2582 13.8592L68.7275 14.0315ZM70.2311 13.2572L70.6909 13.0607L70.4798 12.5668L70.0022 12.8127L70.2311 13.2572ZM68.2692 12.9302L68.3127 13.4283L68.4105 13.4198L68.4978 13.3749L68.2692 12.9302ZM68.1757 12.9467L68.0034 13.4161L68.1522 13.4707L68.3053 13.4296L68.1757 12.9467ZM62.8642 10.9963L63.0366 10.527L63.0366 10.527L62.8642 10.9963ZM62.2504 11.1214L61.9081 10.7569L61.9079 10.7571L62.2504 11.1214ZM60.5766 12.6954L60.4042 13.1648L60.6941 13.2713L60.9191 13.0597L60.5766 12.6954ZM48.6187 8.3042L48.1494 8.13183L47.977 8.60119L48.4464 8.77356L48.6187 8.3042ZM50.8773 2.15438L51.051 1.68552L50.5808 1.51132L50.408 1.982L50.8773 2.15438ZM73.1675 10.4126L73.3961 10.8573L74.406 10.3382L73.3412 9.94371L73.1675 10.4126ZM54.5981 8.8769C54.694 8.61792 54.5617 8.33028 54.3028 8.23445C54.0438 8.13861 53.7561 8.27086 53.6603 8.52983L54.5981 8.8769ZM53.1348 9.94976C53.039 10.2087 53.1713 10.4964 53.4302 10.5922C53.6892 10.6881 53.9768 10.5558 54.0727 10.2968L53.1348 9.94976ZM56.8879 9.71693C56.9837 9.45795 56.8515 9.17032 56.5925 9.07448C56.3335 8.97864 56.0459 9.11089 55.9501 9.36987L56.8879 9.71693ZM55.4246 10.7898C55.3288 11.0488 55.461 11.3364 55.72 11.4322C55.979 11.5281 56.2666 11.3958 56.3624 11.1369L55.4246 10.7898ZM59.1099 10.5434C59.2058 10.2844 59.0735 9.9968 58.8145 9.90096C58.5556 9.80512 58.2679 9.93737 58.1721 10.1963L59.1099 10.5434ZM57.6466 11.6163C57.5508 11.8753 57.683 12.1629 57.942 12.2587C58.201 12.3546 58.4886 12.2223 58.5845 11.9633L57.6466 11.6163ZM1.50049 14.5837C1.50049 14.4336 1.62212 14.312 1.77216 14.312V13.312C1.06983 13.312 0.500488 13.8814 0.500488 14.5837H1.50049ZM1.77216 14.312H32.2288V13.312H1.77216V14.312ZM32.2288 14.312C32.3789 14.312 32.5005 14.4336 32.5005 14.5837H33.5005C33.5005 13.8814 32.9311 13.312 32.2288 13.312V14.312ZM32.5005 14.5837C32.5005 14.7337 32.3789 14.8554 32.2288 14.8554V15.8554C32.9311 15.8554 33.5005 15.286 33.5005 14.5837H32.5005ZM32.2288 14.8554H1.77216V15.8554H32.2288V14.8554ZM1.77216 14.8554C1.62212 14.8554 1.50049 14.7337 1.50049 14.5837H0.500488C0.500488 15.286 1.06983 15.8554 1.77216 15.8554V14.8554ZM83.5005 14.5837C83.5005 14.4336 83.6221 14.312 83.7722 14.312V13.312C83.0698 13.312 82.5005 13.8814 82.5005 14.5837H83.5005ZM83.7722 14.312H114.229V13.312H83.7722V14.312ZM114.229 14.312C114.379 14.312 114.5 14.4336 114.5 14.5837H115.5C115.5 13.8814 114.931 13.312 114.229 13.312V14.312ZM114.5 14.5837C114.5 14.7337 114.379 14.8554 114.229 14.8554V15.8554C114.931 15.8554 115.5 15.286 115.5 14.5837H114.5ZM114.229 14.8554H83.7722V15.8554H114.229V14.8554ZM83.7722 14.8554C83.6221 14.8554 83.5005 14.7337 83.5005 14.5837H82.5005C82.5005 15.286 83.0698 15.8554 83.7722 15.8554V14.8554ZM75.0248 9.29667L50.9043 0.360449L50.5569 1.29816L74.6774 10.2344L75.0248 9.29667ZM50.9039 0.360304C50.3364 0.150603 49.7057 0.440671 49.4964 1.00897L50.4347 1.35468C50.4528 1.30545 50.5077 1.28 50.5573 1.29831L50.9039 0.360304ZM49.6119 0.828356C49.6119 0.828387 49.6118 0.828401 49.6118 0.828405C49.6118 0.828418 49.6119 0.828392 49.6119 0.828361C49.6119 0.828354 49.6119 0.828342 49.6119 0.828326C49.6119 0.828317 49.612 0.828275 49.612 0.828221C49.612 0.828203 49.6121 0.828125 49.6122 0.828026C49.6123 0.827966 49.6125 0.827795 49.6126 0.827684C49.6128 0.827414 49.6148 0.825504 49.6164 0.823872C50.3197 0.829075 50.3211 1.53332 50.3202 1.53424C50.32 1.53445 50.3197 1.53476 50.3196 1.53486C50.3195 1.535 50.3194 1.53511 50.3193 1.53512C50.3193 1.53519 50.3192 1.53524 50.3192 1.53524C50.3192 1.53526 50.3192 1.53527 50.3192 1.53528C50.3192 1.5353 50.3192 1.53531 50.3192 1.53531C50.3191 1.53533 50.3191 1.53533 50.3192 1.53528C50.3192 1.53524 50.3192 1.53524 50.3192 1.53526C50.3192 1.53526 50.3192 1.53527 50.3192 1.53528C50.3192 1.53529 50.3192 1.53531 50.3191 1.53532C50.3191 1.53533 50.3191 1.53538 50.319 1.53544C50.319 1.53546 50.3189 1.53557 50.3188 1.53571C50.3187 1.5358 50.3183 1.53612 50.3181 1.53633C50.3172 1.53726 49.6129 1.53614 49.6075 0.832802C49.6091 0.83119 49.6109 0.829316 49.6112 0.829047C49.6113 0.828937 49.6115 0.828766 49.6115 0.828706C49.6116 0.828607 49.6117 0.828529 49.6117 0.828511C49.6118 0.828458 49.6118 0.828416 49.6118 0.828407C49.6119 0.828391 49.6119 0.828378 49.6119 0.828372C49.6119 0.828341 49.6119 0.828314 49.6119 0.828328C49.6119 0.828332 49.6119 0.828346 49.6119 0.828377L50.3192 1.53527C50.3192 1.53524 50.3192 1.53522 50.3193 1.5352C50.3193 1.53519 50.3193 1.53519 50.3193 1.53518C50.3193 1.53518 50.3193 1.53516 50.3193 1.53514C50.3193 1.53513 50.3193 1.53512 50.3194 1.5351C50.3194 1.53509 50.3194 1.53505 50.3195 1.53499C50.3195 1.53498 50.3196 1.5349 50.3197 1.5348C50.3197 1.53474 50.3199 1.53457 50.32 1.53446C50.3203 1.53419 50.3221 1.53232 50.3237 1.5307C50.3183 0.827363 49.614 0.826241 49.6131 0.827174C49.6129 0.82739 49.6125 0.827702 49.6125 0.827798C49.6123 0.827937 49.6122 0.828047 49.6122 0.828061C49.6121 0.828124 49.6121 0.828174 49.6121 0.828182C49.612 0.8282 49.612 0.828214 49.612 0.828222C49.612 0.828237 49.612 0.828249 49.612 0.828254C49.612 0.828288 49.6119 0.828347 49.6119 0.828366C49.6119 0.828385 49.6118 0.828444 49.6118 0.828479C49.6118 0.828484 49.6118 0.828496 49.6117 0.828511C49.6117 0.828518 49.6117 0.828532 49.6117 0.82855C49.6117 0.828558 49.6116 0.828608 49.6116 0.828672C49.6116 0.828686 49.6115 0.828796 49.6113 0.828934C49.6112 0.82903 49.6109 0.82934 49.6107 0.829556C49.6098 0.830475 49.6112 1.53472 50.3145 1.53992C50.3161 1.53829 50.3181 1.53638 50.3184 1.53611C50.3185 1.536 50.3186 1.53583 50.3187 1.53577C50.3188 1.53567 50.3189 1.53559 50.3189 1.53557C50.3189 1.53552 50.319 1.53548 50.319 1.53547C50.319 1.53545 50.319 1.53544 50.319 1.53543C50.3191 1.53541 50.3191 1.53539 50.3191 1.53539C50.3191 1.53538 50.3191 1.53537 50.3191 1.53537C50.3191 1.53535 50.3191 1.53533 50.3192 1.53529L49.6119 0.828356ZM49.4962 1.00939L46.8256 8.27828L47.7642 8.62314L50.4349 1.35426L49.4962 1.00939ZM46.8256 8.27819C46.6169 8.84598 46.9078 9.47595 47.4759 9.6848L47.8209 8.74621C47.7715 8.72804 47.7459 8.67297 47.7642 8.62323L46.8256 8.27819ZM47.4761 9.68487L50.2725 10.7114L50.6171 9.77268L47.8207 8.74613L47.4761 9.68487ZM49.9754 10.0698L49.3594 11.7481L50.2982 12.0927L50.9142 10.4143L49.9754 10.0698ZM49.3594 11.7482C49.1511 12.3161 49.4422 12.9452 50.01 13.154L50.3551 12.2154C50.3054 12.1971 50.28 12.1422 50.2982 12.0926L49.3594 11.7482ZM50.0102 13.1541L55.603 15.2074L55.9477 14.2687L50.3549 12.2153L50.0102 13.1541ZM55.306 14.5656L54.895 15.6844L55.8336 16.0293L56.2447 14.9105L55.306 14.5656ZM54.8958 15.6822C54.443 16.897 54.8655 18.2646 55.9252 19.0119L56.5015 18.1946C55.8132 17.7093 55.5386 16.8208 55.8328 16.0315L54.8958 15.6822ZM55.7134 18.6032V21.6434H56.7134V18.6032H55.7134ZM56.2134 21.1434H48.1974V22.1434H56.2134V21.1434ZM48.6555 21.443C48.2025 20.4075 47.2756 19.6556 46.1685 19.4262L45.9656 20.4054C46.7552 20.569 47.4163 21.1053 47.7393 21.8438L48.6555 21.443ZM46.5671 19.9158V18.6648H45.5671V19.9158H46.5671ZM46.5671 18.6648C46.5671 18.0597 46.0768 17.569 45.4713 17.569V18.569C45.5243 18.569 45.5671 18.6117 45.5671 18.6648H46.5671ZM45.4713 17.569H43.0694V18.569H45.4713V17.569ZM43.0694 17.569C42.4643 17.569 41.9736 18.0596 41.9736 18.6648H42.9736C42.9736 18.6119 43.0165 18.569 43.0694 18.569V17.569ZM41.9736 18.6648V28.1965H42.9736V18.6648H41.9736ZM41.9736 28.1965C41.9736 28.8021 42.4644 29.2923 43.0694 29.2923V28.2923C43.0164 28.2923 42.9736 28.2495 42.9736 28.1965H41.9736ZM43.0694 29.2923H45.4713V28.2923H43.0694V29.2923ZM45.4713 29.2923C46.0767 29.2923 46.5671 28.8019 46.5671 28.1965H45.5671C45.5671 28.2496 45.5244 28.2923 45.4713 28.2923V29.2923ZM46.5671 28.1965V26.9457H45.5671V28.1965H46.5671ZM46.1687 27.4353C47.2755 27.2056 48.2025 26.4541 48.6555 25.4182L47.7393 25.0175C47.4163 25.7562 46.7552 26.2923 45.9655 26.4561L46.1687 27.4353ZM48.1974 25.7178H56.2134V24.7178H48.1974V25.7178ZM55.7134 25.2178V25.8136H56.7134V25.2178H55.7134ZM55.7134 25.8136C55.7134 27.0767 56.7372 28.101 58.0005 28.101V27.101C57.2896 27.101 56.7134 26.5246 56.7134 25.8136H55.7134ZM58.0005 28.101C59.2637 28.101 60.2878 27.0768 60.2878 25.8136H59.2878C59.2878 26.5245 58.7114 27.101 58.0005 27.101V28.101ZM60.2878 25.8136V19.214H59.2878V25.8136H60.2878ZM60.0099 19.662C60.6659 19.3367 61.1728 18.7724 61.4254 18.0846L60.4868 17.7398C60.3224 18.1871 59.9927 18.5543 59.5657 18.7661L60.0099 19.662ZM61.4254 18.0846L61.8365 16.9658L60.8978 16.621L60.4868 17.7398L61.4254 18.0846ZM61.1949 17.2628L66.2282 19.1096L66.5726 18.1709L61.5394 16.324L61.1949 17.2628ZM66.2274 19.1094C66.349 19.1542 66.4769 19.1768 66.6054 19.1768V18.1768C66.5939 18.1768 66.5833 18.1748 66.5734 18.1711L66.2274 19.1094ZM66.6054 19.1768C67.0645 19.1768 67.4755 18.8905 67.6342 18.4591L66.6957 18.1139C66.6818 18.1515 66.6458 18.1768 66.6054 18.1768V19.1768ZM67.6343 18.4588L67.8576 17.8505L66.9188 17.5059L66.6956 18.1142L67.6343 18.4588ZM67.2957 18.1696C69.5057 18.5854 71.6342 17.131 72.0498 14.9212L71.067 14.7364C70.7536 16.4033 69.1479 17.5005 67.4807 17.1868L67.2957 18.1696ZM72.0498 14.9212C72.2034 14.1047 72.1037 13.2608 71.7639 12.5027L70.8514 12.9117C71.1077 13.4836 71.1829 14.1203 71.067 14.7364L72.0498 14.9212ZM71.536 13.152L75.1475 11.2976L74.6907 10.408L71.0793 12.2624L71.536 13.152ZM75.1471 11.2978C75.6856 11.0219 75.8985 10.3616 75.6226 9.82304L74.7326 10.2791C74.7567 10.3261 74.7381 10.3838 74.6911 10.4078L75.1471 11.2978ZM75.6228 9.82343C75.4977 9.57866 75.2851 9.39003 75.0275 9.29479L74.6807 10.2328C74.7031 10.241 74.7216 10.2574 74.7324 10.2787L75.6228 9.82343ZM74.6016 9.33223L74.5986 9.33398L75.1036 10.1971L75.1066 10.1953L74.6016 9.33223ZM57.2343 19.6161L57.7276 19.7949L58.0683 18.8547L57.575 18.6759L57.2343 19.6161ZM57.7292 19.7954C58.001 19.8929 58.2861 19.9489 58.5747 19.9613L58.6177 18.9623C58.4298 18.9542 58.244 18.9177 58.0667 18.8541L57.7292 19.7954ZM58.0962 19.4618V21.6434H59.0962V19.4618H58.0962ZM58.5962 21.1434H57.4047V22.1434H58.5962V21.1434ZM57.9047 21.6434V19.146H56.9047V21.6434H57.9047ZM44.8758 27.101H43.6652V28.101H44.8758V27.101ZM44.1652 27.601V19.2605H43.1652V27.601H44.1652ZM43.6652 19.7605H44.8758V18.7605H43.6652V19.7605ZM44.3758 19.2605V27.601H45.3758V19.2605H44.3758ZM46.7586 24.0259C46.7579 24.5715 46.4141 25.058 45.8997 25.2407L46.2345 26.183C47.1471 25.8588 47.7574 24.9956 47.7586 24.0272L46.7586 24.0259ZM46.5671 25.7119V21.1496H45.5671V25.7119H46.5671ZM45.8998 21.6208C46.414 21.8033 46.7579 22.2897 46.7586 22.8356L47.7586 22.8343C47.7574 21.8657 47.1472 21.0025 46.2343 20.6784L45.8998 21.6208ZM46.7586 22.835V24.0265H47.7586V22.835H46.7586ZM48.4687 23.335H58.5962V22.335H48.4687V23.335ZM58.0962 22.835V24.0265H59.0962V22.835H58.0962ZM58.5962 23.5265H48.4687V24.5265H58.5962V23.5265ZM48.9687 24.0265V22.835H47.9687V24.0265H48.9687ZM58.0005 25.9094C57.9476 25.9094 57.9047 25.8665 57.9047 25.8136H56.9047C56.9047 26.4188 57.3953 26.9094 58.0005 26.9094V25.9094ZM57.9047 25.8136V25.2178H56.9047V25.8136H57.9047ZM57.4047 25.7178H58.5962V24.7178H57.4047V25.7178ZM58.0962 25.2178V25.8136H59.0962V25.2178H58.0962ZM58.0962 25.8136C58.0962 25.8665 58.0533 25.9094 58.0005 25.9094V26.9094C58.6056 26.9094 59.0962 26.4188 59.0962 25.8136H58.0962ZM59.7795 16.2107L59.3685 17.3295L60.3071 17.6744L60.7182 16.5556L59.7795 16.2107ZM59.3686 17.3293C59.2369 17.6872 58.8397 17.8711 58.4812 17.7396L58.1368 18.6784C59.0133 18.9999 59.9847 18.5507 60.3071 17.6746L59.3686 17.3293ZM58.481 17.7395L57.3604 17.329L57.0164 18.2679L58.137 18.6785L58.481 17.7395ZM57.3608 17.3291C57.0024 17.1975 56.8184 16.8002 56.95 16.4417L56.0112 16.0971C55.6893 16.9741 56.1394 17.9459 57.0161 18.2678L57.3608 17.3291ZM56.9499 16.442L57.3612 15.3236L56.4226 14.9785L56.0114 16.0968L56.9499 16.442ZM66.4245 16.8491L51.3247 11.3043L50.98 12.243L66.0798 17.7878L66.4245 16.8491ZM51.6216 11.9461L52.0329 10.8273L51.0943 10.4823L50.683 11.6011L51.6216 11.9461ZM51.3913 11.1242L60.3387 14.4099L60.6834 13.4711L51.736 10.1855L51.3913 11.1242ZM60.3402 14.4104C60.7285 14.5516 61.1641 14.4633 61.4666 14.1805L60.7837 13.45C60.7567 13.4752 60.7172 13.4834 60.682 13.4706L60.3402 14.4104ZM61.4678 14.1793L63.1397 12.6055L62.4542 11.8773L60.7824 13.4512L61.4678 14.1793ZM62.6246 12.7108L67.3118 14.4323L67.6566 13.4937L62.9693 11.7721L62.6246 12.7108ZM67.0148 13.7907L65.7828 17.1461L66.7215 17.4908L67.9536 14.1353L67.0148 13.7907ZM69.8113 14.8162C69.5127 15.6213 68.7096 16.1243 67.8552 16.0415L67.7587 17.0368C69.065 17.1635 70.2925 16.3944 70.7489 15.1639L69.8113 14.8162ZM68.2763 16.7114L69.1969 14.2038L68.2582 13.8592L67.3376 16.3668L68.2763 16.7114ZM68.9564 14.476L70.46 13.7017L70.0022 12.8127L68.4986 13.587L68.9564 14.476ZM69.7713 13.4537C69.9568 13.8877 69.9706 14.3762 69.81 14.8198L70.7502 15.1603C70.9971 14.4783 70.9759 13.7278 70.6909 13.0607L69.7713 13.4537ZM68.2258 12.4321C68.1652 12.4374 68.1052 12.448 68.0462 12.4638L68.3053 13.4296C68.3078 13.4289 68.3103 13.4285 68.3127 13.4283L68.2258 12.4321ZM68.3481 12.4773L63.0366 10.527L62.6919 11.4657L68.0034 13.4161L68.3481 12.4773ZM63.0366 10.527C62.6474 10.3841 62.2107 10.4727 61.9081 10.7569L62.5927 11.4858C62.6192 11.461 62.6575 11.4531 62.6919 11.4657L63.0366 10.527ZM61.9079 10.7571L60.2341 12.3312L60.9191 13.0597L62.593 11.4856L61.9079 10.7571ZM60.7489 12.2261L48.7911 7.83485L48.4464 8.77356L60.4042 13.1648L60.7489 12.2261ZM49.0881 8.47658L51.3467 2.32675L50.408 1.982L48.1494 8.13183L49.0881 8.47658ZM50.7036 2.62323L72.9938 10.8814L73.3412 9.94371L51.051 1.68552L50.7036 2.62323ZM72.9389 9.96787L68.0407 12.4855L68.4978 13.3749L73.3961 10.8573L72.9389 9.96787ZM53.6603 8.52983L53.1348 9.94976L54.0727 10.2968L54.5981 8.8769L53.6603 8.52983ZM55.9501 9.36987L55.4246 10.7898L56.3624 11.1369L56.8879 9.71693L55.9501 9.36987ZM58.1721 10.1963L57.6466 11.6163L58.5845 11.9633L59.1099 10.5434L58.1721 10.1963ZM56.7196 15.6205L60.0766 16.8525L60.4211 15.9137L57.0642 14.6817L56.7196 15.6205Z" fill="#E3B873"/>
</svg>
